# xmcd
#
# Track frame offsets:
#	150
#	13556
#	25119
#	37961
#	53838
#	75776
#	88928
#	106100
#	124612
#	141647
#
# Disc length: 2304 seconds
#
# Revision: 2
# Processed by: cddbd v1.5.2PL0 Copyright (c) Steve Scherf et al.
# Submitted via: EasyCDDAExtractor 12.0.1.1
#
DISCID=7108fe0a
DTITLE=Temptations - All Million Sellers
DYEAR=1982
DGENRE=Blues
TTITLE0=My Girl
TTITLE1=Ain't Too Proud To Beg
TTITLE2=I Wish It Would Rain
TTITLE3=Cloud Nine
TTITLE4=Runaway Child, Running Wild
TTITLE5=I Can't Get Next To You
TTITLE6=Psychedelic Shock
TTITLE7=Ball Of Confusion
TTITLE8=Just My Imagination
TTITLE9=Papa Was A Rollin' Stone
EXTD=
EXTT0=
EXTT1=
EXTT2=
EXTT3=
EXTT4=
EXTT5=
EXTT6=
EXTT7=
EXTT8=
EXTT9=
PLAYORDER=
